<svg width="200" height="200" viewBox="0 0 200 200" fill="none" xmlns="http://www.w3.org/2000/svg">
<rect width="200" height="200" rx="30" fill="#313131"/>
<path d="M86.5 59.2779C86.5 56.9153 84.5834 54.9881 82.2241 55.1138C75.7427 55.4592 69.3679 56.5881 63.3477 58.4635C56.0075 60.7501 49.338 64.1016 43.72 68.3266C38.1021 72.5517 33.6457 77.5676 30.6053 83.0879C27.5649 88.6082 26 94.5249 26 100.5C26 106.475 27.5649 112.392 30.6053 117.912C33.6457 123.432 38.1021 128.448 43.72 132.673C49.338 136.898 56.0075 140.25 63.3477 142.537C69.3679 144.412 75.7427 145.541 82.2241 145.886C84.5834 146.012 86.5 144.085 86.5 141.722V141.722C86.5 139.36 84.5827 137.459 82.2252 137.304C77.2393 136.977 72.3406 136.077 67.7012 134.632C61.7412 132.775 56.3258 130.054 51.7643 126.624C47.2027 123.193 43.5843 119.12 41.1156 114.638C38.6469 110.156 37.3763 105.352 37.3763 100.5C37.3763 95.6484 38.6469 90.8443 41.1156 86.362C43.5843 81.8797 47.2027 77.807 51.7643 74.3764C56.3258 70.9458 61.7412 68.2245 67.7012 66.3679C72.3406 64.9227 77.2393 64.0234 82.2252 63.6959C84.5827 63.541 86.5 61.6404 86.5 59.2779V59.2779Z" fill="#FAFAFA"/>
<path d="M112.5 59.2779C112.5 56.9153 114.417 54.9881 116.776 55.1138C123.257 55.4592 129.632 56.5881 135.652 58.4635C142.993 60.7501 149.662 64.1016 155.28 68.3266C160.898 72.5517 165.354 77.5676 168.395 83.0879C171.435 88.6082 173 94.5249 173 100.5C173 106.475 171.435 112.392 168.395 117.912C165.354 123.432 160.898 128.448 155.28 132.673C149.662 136.898 142.993 140.25 135.652 142.537C129.632 144.412 123.257 145.541 116.776 145.886C114.417 146.012 112.5 144.085 112.5 141.722V141.722C112.5 139.36 114.417 137.459 116.775 137.304C121.761 136.977 126.659 136.077 131.299 134.632C137.259 132.775 142.674 130.054 147.236 126.624C151.797 123.193 155.416 119.12 157.884 114.638C160.353 110.156 161.624 105.352 161.624 100.5C161.624 95.6484 160.353 90.8443 157.884 86.362C155.416 81.8797 151.797 77.807 147.236 74.3764C142.674 70.9458 137.259 68.2245 131.299 66.3679C126.659 64.9227 121.761 64.0234 116.775 63.6959C114.417 63.541 112.5 61.6404 112.5 59.2779V59.2779Z" fill="#FAFAFA"/>
<rect x="71" y="96" width="62" height="9" rx="4.5" fill="#FAFAFA"/>
</svg>
